<?xml version="1.0" encoding="UTF-8" standalone="no"?>
<!DOCTYPE svg PUBLIC "-//W3C//DTD SVG 1.1//EN"
 "http://www.w3.org/Graphics/SVG/1.1/DTD/svg11.dtd">
<!-- Generated by graphviz version 2.40.1 (20161225.0304)
 -->
<!-- Title: export_test Pages: 1 -->
<svg width="295pt" height="190pt"
 viewBox="0.00 0.00 295.00 190.00" xmlns="http://www.w3.org/2000/svg" xmlns:xlink="http://www.w3.org/1999/xlink">
<g id="graph0" class="graph" transform="scale(1 1) rotate(0) translate(4 186)">
<title>export_test</title>
<polygon fill="#ffffff" stroke="transparent" points="-4,4 -4,-186 291,-186 291,4 -4,4"/>
<!-- 4 -->
<g id="node1" class="node">
<title>4</title>
<ellipse fill="none" stroke="#000000" cx="18" cy="-110" rx="18" ry="18"/>
<text text-anchor="middle" x="18" y="-106.3" font-family="Times,serif" font-size="14.00" fill="#000000">4</text>
</g>
<!-- 1 -->
<g id="node5" class="node">
<title>1</title>
<ellipse fill="none" stroke="#000000" cx="104" cy="-110" rx="18" ry="18"/>
<text text-anchor="middle" x="104" y="-106.3" font-family="Times,serif" font-size="14.00" fill="#000000">1</text>
</g>
<!-- 4&#45;&gt;1 -->
<g id="edge1" class="edge">
<title>4&#45;&gt;1</title>
<path fill="none" stroke="#000000" d="M36.2384,-110C47.6403,-110 62.5658,-110 75.506,-110"/>
<polygon fill="#000000" stroke="#000000" points="75.7879,-113.5001 85.7879,-110 75.7879,-106.5001 75.7879,-113.5001"/>
<text text-anchor="middle" x="61" y="-113.8" font-family="Times,serif" font-size="14.00" fill="#000000">5</text>
</g>
<!-- 5 -->
<g id="node7" class="node">
<title>5</title>
<ellipse fill="none" stroke="#000000" cx="269" cy="-150" rx="18" ry="18"/>
<text text-anchor="middle" x="269" y="-146.3" font-family="Times,serif" font-size="14.00" fill="#000000">5</text>
</g>
<!-- 4&#45;&gt;5 -->
<g id="edge2" class="edge">
<title>4&#45;&gt;5</title>
<path fill="none" stroke="#000000" d="M33.7429,-119.3637C39.9067,-122.7464 47.1352,-126.3745 54,-129 67.6926,-134.237 71.5484,-134.5374 86,-137 147.6019,-147.4974 163.5771,-147.108 226,-150 230.7424,-150.2197 235.7821,-150.3303 240.6788,-150.3723"/>
<polygon fill="#000000" stroke="#000000" points="240.9995,-153.8724 250.999,-150.3708 240.9984,-146.8724 240.9995,-153.8724"/>
<text text-anchor="middle" x="147" y="-149.8" font-family="Times,serif" font-size="14.00" fill="#000000">10</text>
</g>
<!-- 2 -->
<g id="node2" class="node">
<title>2</title>
<ellipse fill="none" stroke="#000000" cx="190" cy="-110" rx="18" ry="18"/>
<text text-anchor="middle" x="190" y="-106.3" font-family="Times,serif" font-size="14.00" fill="#000000">2</text>
</g>
<!-- 3 -->
<g id="node3" class="node">
<title>3</title>
<ellipse fill="none" stroke="#000000" cx="269" cy="-64" rx="18" ry="18"/>
<text text-anchor="middle" x="269" y="-60.3" font-family="Times,serif" font-size="14.00" fill="#000000">3</text>
</g>
<!-- 2&#45;&gt;3 -->
<g id="edge3" class="edge">
<title>2&#45;&gt;3</title>
<path fill="none" stroke="#000000" d="M205.6079,-100.9119C216.7526,-94.4225 231.962,-85.5665 244.6893,-78.1556"/>
<polygon fill="#000000" stroke="#000000" points="246.544,-81.1258 253.4246,-73.0692 243.0216,-75.0766 246.544,-81.1258"/>
<text text-anchor="middle" x="229.5" y="-91.8" font-family="Times,serif" font-size="14.00" fill="#000000">3</text>
</g>
<!-- 2&#45;&gt;5 -->
<g id="edge4" class="edge">
<title>2&#45;&gt;5</title>
<path fill="none" stroke="#000000" d="M206.3689,-118.288C217.1386,-123.741 231.4504,-130.9876 243.6743,-137.1769"/>
<polygon fill="#000000" stroke="#000000" points="242.4198,-140.4647 252.9224,-141.8595 245.5819,-134.2196 242.4198,-140.4647"/>
<text text-anchor="middle" x="229.5" y="-134.8" font-family="Times,serif" font-size="14.00" fill="#000000">7</text>
</g>
<!-- 3&#45;&gt;4 -->
<g id="edge5" class="edge">
<title>3&#45;&gt;4</title>
<path fill="none" stroke="#000000" d="M250.7963,-64.2461C217.5751,-65.0559 145.0944,-68.494 86,-83 71.594,-86.5363 56.1807,-92.4648 43.6771,-97.8672"/>
<polygon fill="#000000" stroke="#000000" points="42.0531,-94.7592 34.348,-102.0312 44.9062,-101.1513 42.0531,-94.7592"/>
<text text-anchor="middle" x="147" y="-75.8" font-family="Times,serif" font-size="14.00" fill="#000000">10</text>
</g>
<!-- 0 -->
<g id="node4" class="node">
<title>0</title>
<ellipse fill="none" stroke="#000000" cx="18" cy="-18" rx="18" ry="18"/>
<text text-anchor="middle" x="18" y="-14.3" font-family="Times,serif" font-size="14.00" fill="#000000">0</text>
</g>
<!-- 0&#45;&gt;3 -->
<g id="edge6" class="edge">
<title>0&#45;&gt;3</title>
<path fill="none" stroke="#000000" d="M36.0513,-21.3082C79.2873,-29.2319 189.0323,-49.3446 240.9549,-58.8603"/>
<polygon fill="#000000" stroke="#000000" points="240.6451,-62.3617 251.1123,-60.7218 241.907,-55.4764 240.6451,-62.3617"/>
<text text-anchor="middle" x="147" y="-45.8" font-family="Times,serif" font-size="14.00" fill="#000000">4</text>
</g>
<!-- 0&#45;&gt;1 -->
<g id="edge7" class="edge">
<title>0&#45;&gt;1</title>
<path fill="none" stroke="#000000" d="M30.3217,-31.1814C44.499,-46.3478 67.9601,-71.4456 84.5958,-89.2421"/>
<polygon fill="#000000" stroke="#000000" points="82.3154,-91.9279 91.7012,-96.8431 87.4291,-87.1477 82.3154,-91.9279"/>
<text text-anchor="middle" x="61" y="-72.8" font-family="Times,serif" font-size="14.00" fill="#000000">15</text>
</g>
<!-- 1&#45;&gt;2 -->
<g id="edge8" class="edge">
<title>1&#45;&gt;2</title>
<path fill="none" stroke="#000000" d="M122.2384,-110C133.6403,-110 148.5658,-110 161.506,-110"/>
<polygon fill="#000000" stroke="#000000" points="161.7879,-113.5001 171.7879,-110 161.7879,-106.5001 161.7879,-113.5001"/>
<text text-anchor="middle" x="147" y="-113.8" font-family="Times,serif" font-size="14.00" fill="#000000">12</text>
</g>
<!-- 6 -->
<g id="node6" class="node">
<title>6</title>
<ellipse fill="none" stroke="#000000" cx="18" cy="-164" rx="18" ry="18"/>
<text text-anchor="middle" x="18" y="-160.3" font-family="Times,serif" font-size="14.00" fill="#000000">6</text>
</g>
</g>
</svg>
